<svg width="202" height="160" viewBox="0 0 202 160" fill="none" xmlns="http://www.w3.org/2000/svg">
<path d="M100.997 11.6752C97.7733 11.6752 95.1598 9.06161 95.1598 5.83759C95.1598 2.61358 97.7733 0 100.997 0C104.221 0 106.835 2.61358 106.835 5.83759C106.835 9.06161 104.221 11.6752 100.997 11.6752Z" fill="#FAEED4"/>
<path d="M119.121 19.9517C119.847 19.226 119.847 18.0493 119.121 17.3235L113.097 11.2995C112.371 10.5738 111.195 10.5738 110.469 11.2995L100.997 20.7709L91.526 11.2995C90.8002 10.5738 89.6235 10.5738 88.8977 11.2995L82.8738 17.3235C82.148 18.0493 82.148 19.226 82.8738 19.9517L92.3452 29.4231L82.8738 38.8945C82.148 39.6203 82.148 40.797 82.8738 41.5228L88.8977 47.5467C89.6235 48.2725 90.8002 48.2725 91.5259 47.5467L100.997 38.0753L110.469 47.5467C111.195 48.2725 112.371 48.2725 113.097 47.5467L119.121 41.5228C119.847 40.797 119.847 39.6203 119.121 38.8946L109.65 29.4231L119.121 19.9517Z" fill="#FAEED4"/>
<path d="M71.5742 29.4231C71.5742 32.6472 74.1878 35.2607 77.4118 35.2607C80.6358 35.2607 83.2494 32.6472 83.2494 29.4231C83.2494 26.1991 80.6358 23.5856 77.4118 23.5856C74.1878 23.5856 71.5742 26.1991 71.5742 29.4231Z" fill="#FAEED4"/>
<path d="M124.583 35.2607C121.359 35.2607 118.745 32.6472 118.745 29.4231C118.745 26.1991 121.359 23.5855 124.583 23.5856C127.807 23.5856 130.421 26.1991 130.421 29.4231C130.421 32.6472 127.807 35.2607 124.583 35.2607Z" fill="#FAEED4"/>
<path d="M95.1598 53.0087C95.1598 56.2327 97.7733 58.8463 100.997 58.8463C104.221 58.8463 106.835 56.2327 106.835 53.0087C106.835 49.7847 104.221 47.1711 100.997 47.1711C97.7733 47.1711 95.1598 49.7847 95.1598 53.0087Z" fill="#FAEED4"/>
<path d="M76.1797 73.8574V77.4395H81.7457V88.9702H85.7587V77.4395H91.3241V73.8574H76.1797Z" fill="#FAEED4"/>
<path d="M125.82 73.8574L123.318 77.0307L120.977 77.0124C120.312 77.0124 116.86 77.0186 114.092 77.0238V79.8235H120.904V82.7755L118.053 82.7585C117.668 82.7585 115.943 82.7625 114.261 82.7666C114.518 83.6568 115.037 84.1804 115.622 84.5361C116.585 85.1223 117.908 85.3396 119.103 85.3396H125.818L123.318 88.9702H119.103C117.6 88.9702 115.51 88.7179 113.734 87.6376C111.827 86.4769 110.461 84.4591 110.461 81.428V75.3013L110.473 75.3003V73.8574H125.82Z" fill="#FAEED4"/>
<path d="M93.2891 73.8574V88.9702L97.1575 88.9697V84.7037C97.1575 84.1586 97.7486 82.4515 100.597 82.4515C103.641 82.4515 104.413 84.3403 104.413 84.7037V88.9703H108.281V73.8574H104.413V79.3852C103.329 78.8835 102.045 78.5832 100.597 78.5832C99.2675 78.5832 98.1216 78.8301 97.1575 79.2451V73.8574H93.2891Z" fill="#FAEED4"/>
<path d="M36.736 104.849L44.7822 96.8027C39.3718 96.8027 22.447 96.8027 17.0365 96.8027C8.11168 96.8027 0.851562 104.063 0.851562 112.988C0.851562 121.913 8.06544 129.126 16.9903 129.126H44.7822V112.988H36.736V121.126H17.0365C12.551 121.126 8.89781 117.473 8.89781 112.988C8.89781 108.502 12.551 104.849 17.0365 104.849C18.84 104.849 32.2042 104.803 34.0539 104.803L36.736 104.849Z" fill="#FAEED4"/>
<path d="M59.931 114.358C59.931 112.457 60.6987 109.835 62.5139 107.741C64.2171 105.775 66.9828 104.105 71.4543 104.105C80.3251 104.105 84.081 110.814 84.081 114.358V129.127H92.5588V114.358C92.5588 106.447 85.3167 95.627 71.4543 95.627C64.5592 95.627 59.4438 98.3386 56.1076 102.188C52.8833 105.908 51.4532 110.531 51.4531 114.357V129.125L59.931 129.127V114.358Z" fill="#FAEED4"/>
<path d="M107.708 111.636C107.708 109.57 108.334 107.707 109.479 106.418C110.539 105.224 112.41 104.105 115.84 104.105C119.29 104.105 121.47 105.245 122.785 106.579C124.149 107.963 124.838 109.815 124.838 111.636V129.127H133.316V111.636C133.316 109.57 133.942 107.707 135.086 106.418C136.147 105.224 138.018 104.105 141.448 104.105C144.898 104.105 147.078 105.245 148.392 106.579C149.756 107.963 150.446 109.815 150.446 111.636V129.127H158.923V111.636C158.923 107.73 157.455 103.697 154.431 100.628C151.357 97.5084 146.919 95.627 141.448 95.627C136.026 95.627 131.752 97.481 128.859 100.664L128.823 100.628C125.749 97.5084 121.311 95.627 115.84 95.627C110.349 95.627 106.035 97.5292 103.14 100.788C100.329 103.953 99.2305 107.974 99.2305 111.636V129.127H107.708V111.636Z" fill="#FAEED4"/>
<path d="M201.146 97.0449L193.64 103.781L187.921 103.742C186.51 103.742 179.181 103.756 173.305 103.766V109.71H190.711V115.976L181.714 115.94C180.896 115.94 177.235 115.949 173.666 115.957C174.21 117.847 175.312 118.959 176.553 119.714C178.598 120.958 181.406 121.419 183.943 121.419H201.146L193.64 129.127H183.943C180.753 129.127 176.315 128.591 172.546 126.298C168.497 123.834 165.598 119.55 165.598 113.116V100.11L165.622 100.108V97.0449H201.146Z" fill="#FAEED4"/>
<path d="M44.8096 150.373C44.156 150.373 43.5842 150.229 43.094 149.941C42.6039 149.652 42.2195 149.215 41.9407 148.629C41.6716 148.033 41.5371 147.283 41.5371 146.38C41.5371 145.467 41.6668 144.717 41.9263 144.131C42.1858 143.545 42.5606 143.107 43.0508 142.819C43.5409 142.531 44.1272 142.387 44.8096 142.387C45.54 142.387 46.1935 142.555 46.7702 142.891C47.3564 143.218 47.8178 143.679 48.1541 144.275C48.5001 144.871 48.6731 145.573 48.6731 146.38C48.6731 147.197 48.5001 147.903 48.1541 148.499C47.8178 149.095 47.3564 149.556 46.7702 149.883C46.1935 150.21 45.54 150.373 44.8096 150.373ZM40.2252 153.055V142.502H42.3732V144.088L42.33 146.394L42.4741 148.686V153.055H40.2252ZM44.4203 148.528C44.7952 148.528 45.1267 148.441 45.4151 148.268C45.713 148.095 45.9485 147.85 46.1215 147.533C46.3041 147.206 46.3954 146.822 46.3954 146.38C46.3954 145.928 46.3041 145.544 46.1215 145.227C45.9485 144.909 45.713 144.664 45.4151 144.491C45.1267 144.318 44.7952 144.232 44.4203 144.232C44.0455 144.232 43.7091 144.318 43.4112 144.491C43.1133 144.664 42.8778 144.909 42.7048 145.227C42.5318 145.544 42.4453 145.928 42.4453 146.38C42.4453 146.822 42.5318 147.206 42.7048 147.533C42.8778 147.85 43.1133 148.095 43.4112 148.268C43.7091 148.441 44.0455 148.528 44.4203 148.528ZM50.1786 150.258V142.502H52.3266V144.693L52.0239 144.059C52.2546 143.511 52.6246 143.098 53.1339 142.819C53.6433 142.531 54.2632 142.387 54.9936 142.387V144.462C54.8975 144.453 54.811 144.448 54.7341 144.448C54.6573 144.438 54.5756 144.434 54.4891 144.434C53.874 144.434 53.3742 144.611 52.9898 144.967C52.615 145.313 52.4275 145.856 52.4275 146.596V150.258H50.1786ZM60.1237 150.373C59.2395 150.373 58.461 150.2 57.7883 149.854C57.1251 149.508 56.6109 149.037 56.2457 148.441C55.8805 147.836 55.6979 147.149 55.6979 146.38C55.6979 145.601 55.8757 144.914 56.2313 144.318C56.5965 143.713 57.0915 143.242 57.7162 142.906C58.3409 142.56 59.0473 142.387 59.8354 142.387C60.5946 142.387 61.277 142.55 61.8825 142.877C62.4976 143.194 62.9829 143.655 63.3385 144.261C63.6941 144.857 63.8719 145.573 63.8719 146.409C63.8719 146.495 63.8671 146.596 63.8575 146.711C63.8479 146.817 63.8383 146.918 63.8287 147.014H57.5288V145.702H62.6465L61.7816 146.092C61.7816 145.688 61.6999 145.337 61.5365 145.039C61.3731 144.741 61.1472 144.511 60.8589 144.347C60.5706 144.174 60.2342 144.088 59.8498 144.088C59.4653 144.088 59.1242 144.174 58.8262 144.347C58.5379 144.511 58.312 144.746 58.1487 145.054C57.9853 145.351 57.9036 145.707 57.9036 146.12V146.466C57.9036 146.889 57.9949 147.264 58.1775 147.591C58.3697 147.908 58.634 148.153 58.9704 148.326C59.3164 148.489 59.72 148.571 60.1814 148.571C60.5946 148.571 60.955 148.509 61.2626 148.384C61.5797 148.259 61.8681 148.071 62.1275 147.821L63.3241 149.119C62.9685 149.523 62.5216 149.835 61.9834 150.056C61.4452 150.267 60.8253 150.373 60.1237 150.373ZM75.302 142.387C75.9171 142.387 76.4601 142.511 76.931 142.761C77.4115 143.002 77.7864 143.376 78.0555 143.886C78.3342 144.386 78.4735 145.03 78.4735 145.818V150.258H76.2246V146.164C76.2246 145.539 76.0949 145.078 75.8354 144.78C75.5759 144.482 75.2107 144.333 74.7397 144.333C74.413 144.333 74.1198 144.41 73.8603 144.563C73.6008 144.708 73.399 144.929 73.2549 145.227C73.1107 145.524 73.0386 145.904 73.0386 146.365V150.258H70.7897V146.164C70.7897 145.539 70.6599 145.078 70.4004 144.78C70.1506 144.482 69.7902 144.333 69.3192 144.333C68.9925 144.333 68.6993 144.41 68.4398 144.563C68.1803 144.708 67.9785 144.929 67.8343 145.227C67.6902 145.524 67.6181 145.904 67.6181 146.365V150.258H65.3692V142.502H67.5172V144.621L67.1135 144.001C67.3826 143.473 67.7623 143.074 68.2524 142.805C68.7522 142.526 69.3192 142.387 69.9535 142.387C70.6647 142.387 71.2846 142.569 71.8132 142.934C72.3514 143.29 72.707 143.838 72.88 144.578L72.0871 144.362C72.3466 143.756 72.7599 143.276 73.3269 142.92C73.9036 142.564 74.5619 142.387 75.302 142.387ZM80.4893 150.258V142.502H82.7383V150.258H80.4893ZM81.6138 141.421C81.2005 141.421 80.8642 141.301 80.6047 141.06C80.3452 140.82 80.2154 140.522 80.2154 140.166C80.2154 139.811 80.3452 139.513 80.6047 139.273C80.8642 139.032 81.2005 138.912 81.6138 138.912C82.0271 138.912 82.3634 139.028 82.6229 139.258C82.8824 139.479 83.0122 139.768 83.0122 140.123C83.0122 140.498 82.8824 140.81 82.6229 141.06C82.3731 141.301 82.0367 141.421 81.6138 141.421ZM88.098 150.373C87.454 150.373 86.8774 150.248 86.368 149.998C85.8682 149.748 85.479 149.369 85.2003 148.859C84.9216 148.34 84.7822 147.682 84.7822 146.884V142.502H87.0312V146.553C87.0312 147.197 87.1657 147.672 87.4348 147.98C87.7135 148.278 88.1028 148.427 88.6025 148.427C88.9485 148.427 89.2561 148.355 89.5252 148.211C89.7943 148.057 90.0057 147.826 90.1595 147.519C90.3133 147.202 90.3901 146.808 90.3901 146.337V142.502H92.6391V150.258H90.5055V148.124L90.8947 148.744C90.6352 149.282 90.2508 149.691 89.7414 149.969C89.2416 150.239 88.6938 150.373 88.098 150.373ZM104.655 142.387C105.27 142.387 105.813 142.511 106.284 142.761C106.765 143.002 107.14 143.376 107.409 143.886C107.688 144.386 107.827 145.03 107.827 145.818V150.258H105.578V146.164C105.578 145.539 105.448 145.078 105.189 144.78C104.929 144.482 104.564 144.333 104.093 144.333C103.766 144.333 103.473 144.41 103.214 144.563C102.954 144.708 102.752 144.929 102.608 145.227C102.464 145.524 102.392 145.904 102.392 146.365V150.258H100.143V146.164C100.143 145.539 100.013 145.078 99.7538 144.78C99.504 144.482 99.1435 144.333 98.6726 144.333C98.3458 144.333 98.0527 144.41 97.7932 144.563C97.5337 144.708 97.3319 144.929 97.1877 145.227C97.0436 145.524 96.9715 145.904 96.9715 146.365V150.258H94.7226V142.502H96.8706V144.621L96.4669 144.001C96.736 143.473 97.1157 143.074 97.6058 142.805C98.1056 142.526 98.6726 142.387 99.3069 142.387C100.018 142.387 100.638 142.569 101.167 142.934C101.705 143.29 102.06 143.838 102.233 144.578L101.441 144.362C101.7 143.756 102.113 143.276 102.68 142.92C103.257 142.564 103.915 142.387 104.655 142.387ZM113.925 150.258V139.561H116.174V150.258H113.925ZM121.952 150.373C121.126 150.373 120.39 150.2 119.746 149.854C119.112 149.508 118.608 149.037 118.233 148.441C117.868 147.836 117.685 147.149 117.685 146.38C117.685 145.601 117.868 144.914 118.233 144.318C118.608 143.713 119.112 143.242 119.746 142.906C120.39 142.56 121.126 142.387 121.952 142.387C122.769 142.387 123.499 142.56 124.143 142.906C124.787 143.242 125.292 143.708 125.657 144.304C126.022 144.9 126.205 145.592 126.205 146.38C126.205 147.149 126.022 147.836 125.657 148.441C125.292 149.037 124.787 149.508 124.143 149.854C123.499 150.2 122.769 150.373 121.952 150.373ZM121.952 148.528C122.327 148.528 122.663 148.441 122.961 148.268C123.259 148.095 123.495 147.85 123.668 147.533C123.841 147.206 123.927 146.822 123.927 146.38C123.927 145.928 123.841 145.544 123.668 145.227C123.495 144.909 123.259 144.664 122.961 144.491C122.663 144.318 122.327 144.232 121.952 144.232C121.577 144.232 121.241 144.318 120.943 144.491C120.645 144.664 120.405 144.909 120.222 145.227C120.049 145.544 119.963 145.928 119.963 146.38C119.963 146.822 120.049 147.206 120.222 147.533C120.405 147.85 120.645 148.095 120.943 148.268C121.241 148.441 121.577 148.528 121.952 148.528ZM130.981 150.373C130.337 150.373 129.76 150.248 129.251 149.998C128.751 149.748 128.362 149.369 128.083 148.859C127.804 148.34 127.665 147.682 127.665 146.884V142.502H129.914V146.553C129.914 147.197 130.048 147.672 130.318 147.98C130.596 148.278 130.985 148.427 131.485 148.427C131.831 148.427 132.139 148.355 132.408 148.211C132.677 148.057 132.888 147.826 133.042 147.519C133.196 147.202 133.273 146.808 133.273 146.337V142.502H135.522V150.258H133.388V148.124L133.777 148.744C133.518 149.282 133.133 149.691 132.624 149.969C132.124 150.239 131.577 150.373 130.981 150.373ZM142.319 142.387C142.934 142.387 143.482 142.511 143.963 142.761C144.453 143.002 144.837 143.376 145.116 143.886C145.395 144.386 145.534 145.03 145.534 145.818V150.258H143.285V146.164C143.285 145.539 143.146 145.078 142.867 144.78C142.598 144.482 142.214 144.333 141.714 144.333C141.358 144.333 141.036 144.41 140.748 144.563C140.469 144.708 140.248 144.933 140.085 145.241C139.931 145.549 139.854 145.943 139.854 146.423V150.258H137.605V142.502H139.753V144.65L139.35 144.001C139.628 143.482 140.027 143.083 140.546 142.805C141.065 142.526 141.656 142.387 142.319 142.387ZM151.276 153.17C150.546 153.17 149.84 153.079 149.157 152.896C148.484 152.723 147.922 152.459 147.47 152.103L148.364 150.488C148.691 150.758 149.104 150.969 149.604 151.123C150.113 151.286 150.613 151.368 151.103 151.368C151.901 151.368 152.478 151.19 152.833 150.834C153.199 150.479 153.381 149.95 153.381 149.249V148.081L153.525 146.135L153.496 144.174V142.502H155.63V148.96C155.63 150.402 155.255 151.464 154.506 152.146C153.756 152.829 152.68 153.17 151.276 153.17ZM150.93 149.883C150.21 149.883 149.556 149.729 148.97 149.422C148.393 149.105 147.927 148.667 147.571 148.11C147.225 147.543 147.052 146.884 147.052 146.135C147.052 145.376 147.225 144.717 147.571 144.16C147.927 143.593 148.393 143.155 148.97 142.848C149.556 142.54 150.21 142.387 150.93 142.387C151.584 142.387 152.161 142.521 152.66 142.79C153.16 143.05 153.549 143.458 153.828 144.016C154.107 144.563 154.246 145.27 154.246 146.135C154.246 146.99 154.107 147.697 153.828 148.254C153.549 148.802 153.16 149.21 152.66 149.479C152.161 149.748 151.584 149.883 150.93 149.883ZM151.377 148.038C151.771 148.038 152.122 147.961 152.43 147.807C152.737 147.644 152.977 147.418 153.15 147.129C153.323 146.841 153.41 146.51 153.41 146.135C153.41 145.75 153.323 145.419 153.15 145.14C152.977 144.852 152.737 144.631 152.43 144.477C152.122 144.314 151.771 144.232 151.377 144.232C150.983 144.232 150.632 144.314 150.325 144.477C150.017 144.631 149.772 144.852 149.59 145.14C149.417 145.419 149.33 145.75 149.33 146.135C149.33 146.51 149.417 146.841 149.59 147.129C149.772 147.418 150.017 147.644 150.325 147.807C150.632 147.961 150.983 148.038 151.377 148.038ZM161.572 150.373C160.688 150.373 159.91 150.2 159.237 149.854C158.574 149.508 158.06 149.037 157.694 148.441C157.329 147.836 157.147 147.149 157.147 146.38C157.147 145.601 157.324 144.914 157.68 144.318C158.045 143.713 158.54 143.242 159.165 142.906C159.79 142.56 160.496 142.387 161.284 142.387C162.043 142.387 162.726 142.55 163.331 142.877C163.946 143.194 164.432 143.655 164.787 144.261C165.143 144.857 165.321 145.573 165.321 146.409C165.321 146.495 165.316 146.596 165.306 146.711C165.297 146.817 165.287 146.918 165.277 147.014H158.977V145.702H164.095L163.23 146.092C163.23 145.688 163.149 145.337 162.985 145.039C162.822 144.741 162.596 144.511 162.308 144.347C162.019 144.174 161.683 144.088 161.298 144.088C160.914 144.088 160.573 144.174 160.275 144.347C159.987 144.511 159.761 144.746 159.597 145.054C159.434 145.351 159.352 145.707 159.352 146.12V146.466C159.352 146.889 159.444 147.264 159.626 147.591C159.818 147.908 160.083 148.153 160.419 148.326C160.765 148.489 161.169 148.571 161.63 148.571C162.043 148.571 162.404 148.509 162.711 148.384C163.028 148.259 163.317 148.071 163.576 147.821L164.773 149.119C164.417 149.523 163.97 149.835 163.432 150.056C162.894 150.267 162.274 150.373 161.572 150.373Z" fill="#FAEED4"/>
</svg>
